<?xml version="1.0" encoding="UTF-8"?>
<svg width="1825.3" height="357.47" version="1.1" viewBox="0 0 1825.3 357.47" xmlns="http://www.w3.org/2000/svg" xmlns:cc="http://creativecommons.org/ns#" xmlns:dc="http://purl.org/dc/elements/1.1/" xmlns:rdf="http://www.w3.org/1999/02/22-rdf-syntax-ns#">
 <metadata>
  <rdf:RDF>
   <cc:Work rdf:about="">
    <dc:format>image/svg+xml</dc:format>
    <dc:type rdf:resource="http://purl.org/dc/dcmitype/StillImage"/>
    <dc:title>phocean</dc:title>
   </cc:Work>
  </rdf:RDF>
 </metadata>
 <title>phocean</title>
 <description>Created with Sketch (http://www.bohemiancoding.com/sketch)</description>
 <g transform="matrix(4.3255 0 0 5.0306 -2.3232 -1.0306)" fill="#e0e0e0" fill-rule="evenodd">
  <g id="Group">
   <path id="Shape" d="m80.489 70.098c-1.8073-1.0713-1.1011-3.0655 2.1965-6.2025 2.91-2.7684 4.7111-3.6873 4.7111-2.4036 0 0.30463-1.3489 1.8333-2.9976 3.3971-2.4646 2.3376-2.8246 2.8826-2.0247 3.0649 1.0346 0.23575 5.6055-1.937 7.4019-3.5184 1.4069-1.2385 2.8337-1.2245 2.8337 0.0279 0 0.68303-1.2492 1.6802-4.168 3.3272-4.5375 2.5603-6.5442 3.1426-7.9528 2.3075 0 0 1.4086 0.83505 0 0v5e-6m20.704-2.7308c-3.1872-0.75755-3.8913-1.1519-3.8913-2.1796 0-0.56106 0.3401-0.71031 1.173-0.51471 3.5403 0.8314 5.0829 0.94223 5.0829 0.36518 0-0.33189-0.59689-1.5998-1.3264-2.8176-0.83983-1.4019-1.1267-2.335-0.78199-2.5434 0.29946-0.18105 0.76003-0.19884 1.0235-0.03952 0.74902 0.45286 4.2129 6.727 4.2129 7.6308 0 0.97271-1.6883 1.0031-5.4925 0.0989 0 0 3.8042 0.90421 0 0v-1.6e-5m-60.611-2.4512c-1.1936-1.1676-0.65404-2.8025 1.59-4.8183 3.3687-3.026 6.0676-4.5224 6.8154-3.7788 0.66226 0.65864 0.07528 1.2378-4.5688 4.5078-4.7005 3.3098-1.9548 3.4956 4.7859 0.32397 2.1278-1.0012 4.1978-1.6968 4.6001-1.5458 0.80418 0.30188 0.50276 1.6143-0.46436 2.0219-9.659 4.0708-11.479 4.5401-12.758 3.2892 0 0 1.2788 1.251 0 0h-1e-6m64.801-5.5079c-0.5355-0.84762 0.1166-1.358 2.6066-2.04 1.305-0.35745 2.4874-0.83131 2.6275-1.053 0.14007-0.22171-0.80436-1.1471-2.0987-2.0565-2.2499-1.5806-2.8741-2.6354-1.9061-3.2206 0.24599-0.14874 1.6959 0.64096 3.2221 1.7549 1.5262 1.1139 2.9503 2.0253 3.1648 2.0253 0.21447 0 0.76668 0.36856 1.2272 0.81902 1.2424 1.2154 0.23994 2.0575-3.877 3.2569-4.0096 1.1681-4.5196 1.2209-4.9663 0.51398 0 0 0.44663 0.70695 0 0m-80.805-3.2779c-2.2621-0.41601-4.9636-1.0335-7.5125-1.6915-3.6294-0.93697-6.9494-1.9561-8.2503-2.5928-1.0792-0.5282-2.7679-1.111-3.7527-1.295-3.4074-0.63693-4.5646-2.715-2.7397-4.9198 1.1398-1.377 3.3818-1.4952 4.7857-0.2522 0.95939 0.84937 1.214 0.80488 5.8476-1.0219 4.3404-1.7111 6.8427-2.8984 11.277-5.3508 4.5414-2.5115 7.061-4.0191 10.864-6.5006 3.8456-2.509 5.3806-2.9782 5.3806-1.6446 0 1.6753-23.311 14.285-31.41 16.991-2.0165 0.67365 0.66707 1.9483 4.6938 3.1185 3.9497 1.1478 4.7204 1.3613 5.9916 1.7055 0.6758 0.18299 1.5809 0.62256 2.9864 0.77444 1.8427 0.19913 4.3664 0.99418 9.8091 0.98128 4.5258-0.01071 5.7589-0.1944 5.974-0.16907 0.78631 0.09265 0.36433 1.5146-0.52132 1.7567-2.425 0.66292-10.08 0.72641-13.424 0.11135m53.262-0.12202c-0.19117-0.18698-0.34756-0.88356-0.34756-1.5479 0-1.0704-0.12508-1.1424-1.0986-0.63274-1.1608 0.60773-2.2419 0.06585-1.6166-0.81034 0.59535-0.83431 3.1311-2.2789 4.0002-2.2789 0.81201 0 0.98127 0.46013 0.84419 2.295-0.21193 2.8369-0.84396 3.8922-1.7816 2.975 0 0 0.93766 0.91728 0 0l8e-6 -1e-5m-9.7314-3.7272c0-0.84715-0.24856-0.9586-1.564-0.70124-0.97176 0.19013-1.564 0.0957-1.564-0.24936 0-0.75096 3.6627-3.1421 4.8129-3.1421 1.0624 0 1.1253 0.5372 0.3729 3.1875-0.57045 2.0094-2.0579 2.6637-2.0579 0.90524v0h-1e-6m30.179-1.1602c-0.03175-0.35062-0.01496-1.1539 0.03733-1.785 0.09673-1.1681-0.69815-1.5631-1.2829-0.63749-0.4629 0.7327-2.3474 0.62995-2.3384-0.1275 0.0096-0.81583 5.0843-3.576 5.7901-3.1493 0.57945 0.35033 0.14149 3.9452-0.66327 5.4443-0.55541 1.0346-1.4587 1.1839-1.5428 0.255 0 0 0.08408 0.92889 0 0h-2.1e-5m-8.9786-5.3124c-0.19116-0.18699-0.34755-0.87548-0.34755-1.53 0-1.3645-0.62323-1.5339-1.564-0.42499-0.8136 0.95902-2.0853 0.99648-2.0853 0.06143 0-1.0854 4.5884-4.5444 5.5496-4.1836 0.66238 0.24866 0.75253 0.76823 0.46204 2.6632-0.54601 3.5619-1.0282 4.379-2.0148 3.4139 0 0 0.98655 0.96511 0 0m-48.213-1.0287c-0.37694-0.14752-0.91102-0.84887-1.1868-1.5586-0.7009-1.8034 0.61319-3.7026 2.5619-3.7026 1.8178 0 2.6989 0.83995 2.6989 2.5729 0 2.1653-2.0142 3.4944-4.074 2.6883 0 0 2.0598 0.80612 0 0m1.9887-2.7112c0-0.2805-0.2346-0.50999-0.52132-0.50999s-0.52132 0.2295-0.52132 0.50999c0 0.2805 0.2346 0.50999 0.52132 0.50999s0.52132-0.2295 0.52132-0.50999v0m65.687 1.5449c0-0.2723 0.74645-1.531 1.6588-2.7972 0.91231-1.2662 1.5377-2.4206 1.3898-2.5653-0.14793-0.14472-1.3608-0.06358-2.6954 0.18032-1.7182 0.31402-2.6794 0.26244-3.2934-0.17675-1.1651-0.83342-0.46515-1.2119 3.889-2.1032 6.8613-1.4044 7.3358-0.71732 3.1594 4.575-2.3984 3.0393-4.1082 4.2408-4.1082 2.8871v0m-28.325-0.8649c-0.19116-0.18699-0.34755-1.0089-0.34755-1.8266v-1.4866l-1.7834 1.0782c-2.8401 1.7171-3.0183 0.25626-0.25391-2.0814 3.2423-2.7418 4.1226-2.6276 4.1226 0.53463 0 3.4659-0.639 4.8565-1.7377 3.7817 0 0 1.0987 1.0749 0 0h1e-6m-11.295-3.485c0-1.9622-0.28394-2.1211-1.7939-1.0038-1.1048 0.81749-2.898 1.0099-2.898 0.31098 0-0.63469 5.5638-4.1522 6.5677-4.1522 0.71459 0 0.79379 0.38399 0.49965 2.4225-0.50085 3.471-0.7859 4.2074-1.6286 4.2074-0.506 0-0.74686-0.57564-0.74686-1.785v0-1e-6m-18.501-1.4111c-0.11845-0.34589-0.28552-1.2026-0.37126-1.9039-0.14379-1.176-0.35048-1.2684-2.6621-1.1899-2.07 0.07027-2.4775-0.06063-2.3413-0.75218 0.09065-0.46049 0.71988-1.108 1.3983-1.4388 2.4863-1.2126 5.7952 1.0427 5.7952 3.9498 0 1.4047-1.4344 2.4575-1.8188 1.335 0 0 0.38442 1.1225 0 0m43.271-1.8926c-0.17328-0.27428 0.04744-1.6929 0.49056-3.1525 1.2466-4.1064 1.0484-4.2953-2.3223-2.2137-2.3714 1.4645-3.128 1.5889-3.128 0.51435 0-0.41835 1.2903-1.473 2.8673-2.3436 1.577-0.87066 2.9984-1.7906 3.1587-2.0443 0.4543-0.7191 2.172-0.54193 2.4852 0.25631 0.2906 0.74083-0.72472 5.6106-1.6849 8.081-0.55648 1.4318-1.3038 1.7932-1.8665 0.9025 0 0 0.56271 0.8907 0 0v-1e-6m-27.582-7.9579c-0.17405-0.44369-0.31644-1.9567-0.31644-3.3622v-2.5555l-2.663 2.3422c-2.6714 2.3496-4.1142 2.9321-4.1142 1.6609 0-0.7927 6.9293-7.4786 7.7508-7.4786 1.0127 0 1.633 1.9374 1.633 5.0999 0 4.0738-1.3693 6.6408-2.2902 4.2932 0 0 0.92085 2.3475 0 0l3e-6 -1e-5m16.024-0.49259c-0.17029-0.43411-0.18525-1.6963-0.03326-2.8049 0.15199-1.1086 0.10859-2.117-0.09646-2.241-0.20505-0.12398-2.0948 0.92008-4.1994 2.3201-2.6714 1.7771-3.9918 2.384-4.3738 2.0103-0.657-0.64272-0.82398-0.48328 5.0634-4.8353 2.5527-1.887 4.9438-3.2936 5.3436-3.1435 0.8794 0.33013 1.023 6.9633 0.18392 8.4971-0.65032 1.1887-1.4656 1.2739-1.888 0.19716 0 0 0.42235 1.0767 0 0v-1e-6m21.414-0.80679c-0.1847-0.29236 0.30024-1.6748 1.0776-3.0721 0.77741-1.3973 1.3003-2.6513 1.162-2.7866-0.13833-0.13532-1.6728 0.22235-3.4099 0.79482-3.1157 1.0268-5.0127 0.96114-4.6323-0.16027 0.10723-0.31606 0.87958-0.77298 1.7163-1.0154 0.83676-0.24239 3.0819-1.0157 4.9893-1.7184s3.7254-1.122 4.0403-0.93167c1.0466 0.63278 0.59291 2.5841-1.2522 5.3858-1.0036 1.5238-1.8246 2.9259-1.8246 3.1157 0 0.618-1.5213 0.93437-1.8664 0.38815 0 0 0.34509 0.54623 0 0v-1e-6m-63.806-5.7619c-0.51164-1.3165-2.0996-9.1013-2.0996-10.293 0-1.1524 1.4713-0.81949 4.3429 0.98268 1.4822 0.93023 3.7071 2.3202 4.9442 3.0889 2.0818 1.2936 2.5863 2.3128 1.3452 2.7175-0.28105 0.09164-2.1101-0.88255-4.0646-2.1649-1.9545-1.2823-3.6716-2.2161-3.8158-2.075-0.1442 0.14106-1e-3 1.7221 0.31762 3.5135 0.72054 4.0477 0.73238 5.4685 0.04556 5.4685-0.29382 0-0.75076-0.55714-1.0154-1.2381 0 0 0.26465 0.68095 0 0m13.019-7.5836c0-1.0187 2.498-7.4794 3.4476-8.9169 0.42285-0.64005 0.97374-1.0398 1.2242-0.88841 1.0248 0.61961 4.7408 8.0929 4.2587 8.5646-0.7535 0.73712-1.551 0.01963-2.7486-2.4727-0.59589-1.2402-1.3005-2.2548-1.5659-2.2548-0.26534 0-0.94302 1.0901-1.5059 2.4225-0.56293 1.3324-1.2165 2.7531-1.4524 3.1571-0.60361 1.034-1.6577 1.2811-1.6577 0.38857v0m37.361 0.28847c-0.14842-0.23493-0.43481-1.8535-0.63644-3.5969-0.20162-1.7434-0.5348-3.1697-0.74039-3.1697s-1.3346 1.0327-2.5088 2.295c-2.1544 2.3158-2.9162 2.7078-3.4919 1.7967-0.29109-0.46075 5.3696-6.9083 6.8488-7.8009 1.1215-0.67671 1.7878 1.459 1.8998 6.0896 0.0716 2.9595-0.09126 4.4678-0.49743 4.6067-0.33214 0.11365-0.72532 0.01443-0.87374-0.22051 0 0 0.14842 0.23494 0 0m-23.285-3.251c0-0.63763 0.98178-2.7796 2.1817-4.7599 2.9611-4.8868 3.0483-4.9868 3.8094-4.3689 0.75856 0.61586 3.166 9.065 2.71 9.5111-0.74337 0.72721-1.8454-0.40396-2.1582-2.2153-0.18602-1.0771-0.55153-2.296-0.81224-2.7087-0.61161-0.9681-1.3173-0.31102-3.1336 2.9179-1.5113 2.6866-2.5971 3.3655-2.5971 1.6239v0l1e-6 -1e-6" fill="#627690"/>
  </g>
 </g>
 <g transform="translate(-92.557 -125.42)" fill="#627690" aria-label="Phocean.net">
  <path d="m712.42 241.1q6.336 0 11.712 3.648t9.216 10.176q4.032 6.336 6.144 14.976t2.112 18.624q0 9.792-2.112 18.24-2.112 8.256-5.952 14.4t-9.216 9.6-11.904 3.456h-47.424v62.016h-25.728v-155.14zm-47.424 79.872h33.6q4.224 0 7.68-2.496t5.76-6.912q2.496-4.416 3.648-10.368 1.344-6.144 1.344-13.248t-1.344-13.248q-1.152-6.144-3.648-10.752-2.304-4.608-5.76-7.296t-7.68-2.688h-33.6z"/>
  <path d="m781.79 234v39.168h46.464q8.832 0 14.784 1.728 5.952 1.536 9.6 5.76 3.84 4.032 5.376 11.136 1.728 6.912 1.728 17.472v86.976h-25.728v-84.672q0-14.208-3.84-19.968t-12.288-5.76h-36.096v110.4h-25.92v-162.24z"/>
  <path d="m896.87 355.53q0 8.64 0.96 14.208 1.152 5.376 3.456 8.448 2.496 2.88 6.528 4.032t9.984 1.152h14.592q5.952 0 9.792-0.96 4.032-0.96 6.336-3.648 2.496-2.88 3.456-7.68 1.152-4.992 1.152-13.056v-46.464q0-14.016-3.84-19.776-3.648-5.76-12.48-5.76h-23.424q-8.832 0-12.672 5.76t-3.84 19.776zm50.688-82.368q8.448 0 14.4 1.92 5.952 1.728 9.792 6.144t5.568 11.904 1.728 18.624v45.888q0 11.328-1.728 18.816-1.728 7.296-5.568 11.712t-9.792 6.336q-5.952 1.728-14.4 1.728h-44.928q-8.64 0-14.592-1.728-5.952-1.92-9.792-6.336-3.648-4.416-5.376-11.712-1.728-7.488-1.728-18.816v-45.888q0-11.136 1.728-18.624t5.376-11.904q3.84-4.416 9.792-6.144 5.952-1.92 14.592-1.92z"/>
  <path d="m1091.4 273.17v12.864h-55.68q-9.216 0-12.864 5.76-3.648 5.568-3.648 19.776v48.192q0 7.68 1.344 12.48 1.344 4.608 4.8 7.104 3.648 2.496 9.984 3.264t16.32 0.768h39.744v12.864h-67.008q-8.448 0-14.4-1.728-5.952-1.92-9.792-6.336-3.84-4.608-5.568-11.904-1.728-7.488-1.728-18.624v-45.888q0-10.944 1.728-18.24 1.728-7.488 5.376-11.904 3.84-4.608 9.792-6.528t14.592-1.92z"/>
  <path d="m1186.1 273.17q25.728 0 25.728 36.48 0 35.136-25.728 35.136h-52.224v13.248q0 8.064 0.96 13.056 1.152 4.8 3.456 7.68 2.496 2.688 6.336 3.648 4.032 0.96 9.984 0.96h45.312v12.864h-60.672q-8.448 0-14.4-1.728-5.76-1.92-9.6-6.336t-5.568-11.712q-1.728-7.488-1.728-18.816v-45.696q0-11.136 1.728-18.432 1.728-7.488 5.568-11.904 3.84-4.608 9.6-6.528 5.952-1.92 14.4-1.92zm-52.224 58.752h39.936q4.416 0 7.488-0.96 3.072-1.152 4.992-3.648 2.112-2.496 2.88-6.72 0.96-4.416 0.96-10.944 0-13.44-3.648-18.432-3.648-5.184-12.672-5.184h-23.424q-8.64 0-12.672 5.76-3.84 5.568-3.84 19.776z"/>
  <path d="m1298.3 273.17q8.832 0 14.976 1.728 6.144 1.536 9.792 5.76 3.648 4.032 5.184 11.136 1.728 6.912 1.728 17.664v86.784h-79.104q-14.016 0-20.352-9.6t-6.336-26.88q0-18.432 6.144-27.648 6.144-9.408 20.544-9.408h53.184v-15.552q0-11.712-3.648-16.32-3.648-4.8-12.864-4.8h-46.464v-12.864zm-28.416 62.208q-11.52 0-16.512 5.376-4.8 5.184-4.8 18.24 0 12.672 4.032 18.624 4.224 5.76 14.592 5.76h36.864v-48z"/>
  <path d="m1414.7 273.17q8.832 0 14.784 1.728 6.144 1.728 9.792 5.952 3.84 4.032 5.376 10.944t1.536 17.28v87.168h-25.344v-84.48q0-14.592-4.032-20.16-3.84-5.568-12.288-5.568h-36.096v110.21h-25.536v-123.07z"/>
  <path d="m1524.8 373.77v22.464h-25.92v-22.464z"/>
  <path d="m1649.5 273.17q8.832 0 14.784 1.728 6.144 1.728 9.792 5.952 3.84 4.032 5.376 10.944t1.536 17.28v87.168h-25.344v-84.48q0-14.592-4.032-20.16-3.84-5.568-12.288-5.568h-36.096v110.21h-25.536v-123.07z"/>
  <path d="m1773 273.17q25.728 0 25.728 36.48 0 35.136-25.728 35.136h-52.224v13.248q0 8.064 0.96 13.056 1.152 4.8 3.456 7.68 2.496 2.688 6.336 3.648 4.032 0.96 9.984 0.96h45.312v12.864h-60.672q-8.448 0-14.4-1.728-5.76-1.92-9.6-6.336t-5.568-11.712q-1.728-7.488-1.728-18.816v-45.696q0-11.136 1.728-18.432 1.728-7.488 5.568-11.904 3.84-4.608 9.6-6.528 5.952-1.92 14.4-1.92zm-52.224 58.752h39.936q4.416 0 7.488-0.96 3.072-1.152 4.992-3.648 2.112-2.496 2.88-6.72 0.96-4.416 0.96-10.944 0-13.44-3.648-18.432-3.648-5.184-12.672-5.184h-23.424q-8.64 0-12.672 5.76-3.84 5.568-3.84 19.776z"/>
  <path d="m1871.4 241.1v32.064h42.432v12.864h-42.432v75.456q0 6.912 0.576 11.136 0.768 4.224 3.264 6.72 2.496 2.304 7.296 3.264 4.8 0.768 13.056 0.768v12.864h-18.432q-9.984 0-16.128-1.152-6.144-1.344-9.6-4.8t-4.608-9.408-1.152-15.168v-79.68h-31.68v-12.864h31.68v-32.064z"/>
 </g>
</svg>
